<svg xmlns="http://www.w3.org/2000/svg" width="48" height="48" viewBox="0 0 48 48"><rect width="100%" height="100%" fill="#000000"/><path fill="#FFFFFF" d="m20.225 17.54-.74 1.4q-.13.23-.28.33-.15.11-.37.11-.23 0-.5-.17t-.64-.38q-.38-.21-.88-.38t-1.18-.17q-.62 0-1.08.15-.46.14-.77.41-.32.26-.47.63-.16.37-.16.81 0 .56.32.93.31.38.83.64.52.27 1.18.47.66.21 1.35.45t1.35.55 1.18.79.83 1.17q.31.7.31 1.69 0 1.08-.37 2.02-.36.94-1.07 1.63-.71.7-1.74 1.1-1.02.41-2.34.41-.76 0-1.5-.15-.73-.15-1.41-.43-.68-.27-1.27-.66-.59-.38-1.06-.85l.87-1.42q.11-.16.29-.26.18-.11.37-.11.28 0 .6.23t.76.5q.44.28 1.03.5.58.23 1.41.23 1.26 0 1.96-.6.69-.6.69-1.72 0-.63-.31-1.03-.32-.39-.83-.66-.52-.27-1.18-.46t-1.34-.41q-.69-.22-1.35-.52-.66-.31-1.17-.81-.52-.49-.83-1.24-.32-.74-.32-1.83 0-.87.35-1.69.35-.83 1.01-1.46.66-.64 1.62-1.03.97-.38 2.23-.38 1.4 0 2.59.44t2.03 1.23M38.255 24q0 1.75-.58 3.24t-1.64 2.58q-1.05 1.09-2.54 1.7-1.48.61-3.3.61-1.8 0-3.29-.61-1.48-.61-2.54-1.7t-1.65-2.58q-.58-1.49-.58-3.24t.58-3.24q.59-1.49 1.65-2.58t2.54-1.7q1.49-.61 3.29-.61 1.21 0 2.28.28t1.96.79 1.6 1.24q.71.74 1.2 1.64.5.9.76 1.96.26 1.05.26 2.22m-3.03 0q0-1.31-.35-2.35t-1-1.77q-.65-.72-1.58-1.11-.93-.38-2.1-.38-1.16 0-2.09.38-.93.39-1.59 1.11-.65.73-1 1.77t-.35 2.35.35 2.35 1 1.76q.66.72 1.59 1.1.93.39 2.09.39 1.17 0 2.1-.39.93-.38 1.58-1.1t1-1.76.35-2.35"/></svg>